<svg xmlns="http://www.w3.org/2000/svg" xmlns:xlink="http://www.w3.org/1999/xlink" version="1.1" x="0px" y="0px" viewBox="0 0 64 64
	" style="enable-background:new 0 0 64 64;" xml:space="preserve"><g><path fill="white" d="M59,1.019l-5.813,4.36l-5.846,13.64H42.64l-1.846-4H42c2.206,0,4-1.794,4-4v-4h2v-6h-6v6h2v4c0,1.103-0.897,2-2,2h-2.129   l-2.556-5.539l3.062-1.53L30.351,1.652L27.994,9.9C27.93,4.992,23.923,1.019,19,1.019c-4.963,0-9,4.037-9,9   c0,2.999,1.519,5.812,4,7.475v1.525h-2.422l-0.156,0.811c-0.486,2.521-0.531,5.107-0.134,7.691L4.474,39.678l7.542,1.72V54h10v9h24   V49.065C52.91,44.113,57.006,36.151,57,27.657l-0.002-3.648c0-1.375-0.129-2.778-0.385-4.171l-0.15-0.819H54.5l4.5-10.8V1.019z    M44,3.019h2v2h-2V3.019z M57,6.4l-1.106-0.553L57,5.019V6.4z M40.437,19.019h-3.793l-1.818-4h3.765L40.437,19.019z M32.629,15.019   l1.818,4H30v-2c0-1.103,0.897-2,2-2H32.629z M31.649,4.385l3.975,1.703l-0.938,0.47l2.982,6.461h-3.751L31.48,7.66l-0.895,0.447   L31.649,4.385z M30.52,10.377l1.213,2.669C29.653,13.186,28,14.904,28,17.019v2h-4v-1.525c2.001-1.341,3.359-3.434,3.817-5.765   L30.52,10.377z M15.501,16.074C13.342,14.823,12,12.503,12,10.019c0-3.859,3.141-7,7-7s7,3.141,7,7   c0,2.484-1.342,4.805-3.501,6.056L22,16.363v2.655h-2v-6.184c1.161-0.414,2-1.514,2-2.816c0-1.654-1.346-3-3-3s-3,1.346-3,3   c0,1.302,0.839,2.402,2,2.816v6.184h-2v-2.655L15.501,16.074z M18,10.019c0-0.552,0.448-1,1-1s1,0.448,1,1s-0.448,1-1,1   S18,10.57,18,10.019z M54.998,24.01L55,27.659c0.006,8.011-3.939,15.511-10.552,20.063l-0.433,0.298V61h-20v-9h-10V39.802   l-6.489-1.479l5.85-10.437l-0.059-0.348c-0.371-2.188-0.395-4.377-0.071-6.52H14h10h30.78   C54.925,22.021,54.998,23.023,54.998,24.01z M49.516,19.019l4.985-11.631l2.217,1.108l-4.384,10.523H49.516z"/><path fill="white" d="M21,27.019c-1.654,0-3-1.346-3-3h-2c0,2.757,2.243,5,5,5s5-2.243,5-5h-2C24,25.673,22.654,27.019,21,27.019z"/></g></svg>