<svg fill="white" xmlns="http://www.w3.org/2000/svg" viewBox="0 0 48 60" x="0px" y="0px"><title>19-customer support</title><g data-name="19-customer support">
<path d="M24.714,40H20V38h4.714c3.8,0,4.869-2.538,5.169-4h-14.6A5.155,5.155,0,0,0,10,39H8a7.156,7.156,0,0,1,7.286-7H31a1,1,0,0,1,1,1A6.868,6.868,0,0,1,24.714,40Z"/><path d="M32,48H11a3,3,0,0,1-3-3V42h2v3a1,1,0,0,0,1,1H31.7l13.965-9.182a.963.963,0,0,0-.012-1.467,1.47,1.47,0,0,0-1.7-.146l-10.437,6.35a1.006,1.006,0,0,1-.995.025l-5-2.7.95-1.76,4.5,2.428L42.92,33.5A3.438,3.438,0,0,1,47,33.873a2.964,2.964,0,0,1-.077,4.5.939.939,0,0,1-.1.076L32.55,47.836A1.009,1.009,0,0,1,32,48Z"/><path d="M9,47H1a1,1,0,0,1-1-1V36a1,1,0,0,1,1-1h9v2H2v8H9Z"/><path d="M22,30H20V19.477a1,1,0,0,1,.667-.943A7.986,7.986,0,0,0,22,4.081V11a4,4,0,0,1-8,0V4.081a7.986,7.986,0,0,0,1.333,14.453,1,1,0,0,1,.667.943V30H14V20.156a9.987,9.987,0,0,1,.667-18.575A1,1,0,0,1,16,2.523V11a2,2,0,0,0,4,0V2.523a1,1,0,0,1,1.333-.942A9.987,9.987,0,0,1,22,20.156Z"/><path d="M35,10a3,3,0,0,1-3-3V1a1,1,0,0,1,1-1h4a1,1,0,0,1,1,1V7A3,3,0,0,1,35,10ZM34,2V7a1,1,0,0,0,2,0V2Z"/><rect x="34" y="9" width="2" height="14"/><path d="M39,28H31a1,1,0,0,1-1-1,5,5,0,0,1,10,0A1,1,0,0,1,39,28Zm-6.829-2h5.658a3,3,0,0,0-5.658,0Z"/><rect x="30" y="27" width="2" height="3"/><rect x="38" y="27" width="2" height="6"/></g></svg>