<svg xmlns="http://www.w3.org/2000/svg" xmlns:xlink="http://www.w3.org/1999/xlink" viewBox="0 0 161.33 185.94"><defs><style>.cls-1,.cls-2,.cls-3,.cls-4,.cls-5,.cls-6,.cls-7{stroke:#fff;stroke-miterlimit:10;stroke-width:0.25px;}.cls-1{fill:url(#linear-gradient);}.cls-2{fill:none;}.cls-3{fill:url(#linear-gradient-2);}.cls-4{fill:url(#linear-gradient-3);}.cls-5{fill:url(#linear-gradient-4);}.cls-6{fill:url(#linear-gradient-5);}.cls-7{fill:url(#linear-gradient-6);}</style><linearGradient id="linear-gradient" x1="12.75" y1="86.19" x2="21.75" y2="11.69" gradientUnits="userSpaceOnUse"><stop offset="0" stop-color="#fff" stop-opacity="0.5"/><stop offset="0.15" stop-color="#fff" stop-opacity="0.54"/><stop offset="0.4" stop-color="#fff" stop-opacity="0.65"/><stop offset="0.72" stop-color="#fff" stop-opacity="0.83"/><stop offset="1" stop-color="#fff"/></linearGradient><linearGradient id="linear-gradient-2" x1="79.83" y1="91.24" x2="80.33" y2="36.74" xlink:href="#linear-gradient"/><linearGradient id="linear-gradient-3" x1="147.54" y1="93.13" x2="143.54" y2="23.13" xlink:href="#linear-gradient"/><linearGradient id="linear-gradient-4" x1="80.09" y1="165.4" x2="80.59" y2="109.4" xlink:href="#linear-gradient"/><linearGradient id="linear-gradient-5" x1="20.26" y1="121.04" x2="59.87" y2="121.04" gradientUnits="userSpaceOnUse"><stop offset="0" stop-color="#fff" stop-opacity="0.5"/><stop offset="0.02" stop-color="#fff" stop-opacity="0.54"/><stop offset="0.07" stop-color="#fff" stop-opacity="0.66"/><stop offset="0.14" stop-color="#fff" stop-opacity="0.77"/><stop offset="0.22" stop-color="#fff" stop-opacity="0.85"/><stop offset="0.31" stop-color="#fff" stop-opacity="0.92"/><stop offset="0.42" stop-color="#fff" stop-opacity="0.97"/><stop offset="0.57" stop-color="#fff" stop-opacity="0.99"/><stop offset="1" stop-color="#fff"/></linearGradient><linearGradient id="linear-gradient-6" x1="100.05" y1="121.04" x2="139.66" y2="121.04" xlink:href="#linear-gradient-5"/></defs><title>logo-letters_1</title><g id="Layer_2" data-name="Layer 2"><g id="logo_letters" data-name="logo letters"><polygon class="cls-1" points="26.66 90.24 0.49 102.22 8.65 0.9 26.66 90.24"/><line class="cls-2" x1="26.66" y1="90.23" x2="26.66" y2="90.23"/><path class="cls-3" d="M152.66.9l-.2,1-71.9,80.9L8.66.9l72,63.67Z"/><polygon class="cls-4" points="160.81 102.24 134.66 90.9 152.46 1.89 152.66 0.9 160.81 102.24"/><line class="cls-2" x1="80.66" y1="185.38" x2="80.66" y2="185.36"/><polygon class="cls-5" points="160.81 102.24 134.66 104.14 95.05 119.22 80.66 185.36 66.27 119.2 26.66 104.12 0.49 102.22 26.66 90.24 80.66 108.9 134.66 90.9 160.81 102.24"/><polygon class="cls-6" points="59.87 127.67 38.26 129.49 20.25 112.59 59.87 127.67"/><polygon class="cls-7" points="139.66 112.59 121.66 129.49 100.05 127.67 139.66 112.59"/></g></g></svg>