<svg xmlns="http://www.w3.org/2000/svg" xmlns:xlink="http://www.w3.org/1999/xlink" viewBox="0 0 253.38 221.82"><defs><style>.cls-1,.cls-10,.cls-11,.cls-13,.cls-14,.cls-15,.cls-17,.cls-18,.cls-19,.cls-2,.cls-20,.cls-21,.cls-3,.cls-4,.cls-5,.cls-6,.cls-7,.cls-8,.cls-9{stroke:#fff;stroke-miterlimit:10;}.cls-1,.cls-11,.cls-13,.cls-14,.cls-15,.cls-17,.cls-18,.cls-19,.cls-2,.cls-20,.cls-21,.cls-3,.cls-4,.cls-5,.cls-6,.cls-7,.cls-8,.cls-9{stroke-width:0.25px;}.cls-1{fill:url(#linear-gradient);}.cls-2{fill:url(#linear-gradient-2);}.cls-3{fill:url(#linear-gradient-3);}.cls-4{fill:url(#linear-gradient-4);}.cls-10,.cls-5{fill:none;}.cls-6{fill:url(#linear-gradient-5);}.cls-7{fill:url(#linear-gradient-6);}.cls-8{fill:url(#linear-gradient-7);}.cls-9{fill:url(#linear-gradient-8);}.cls-10{stroke-width:0.5px;}.cls-11{fill:url(#linear-gradient-9);}.cls-12{fill:url(#linear-gradient-10);}.cls-13{fill:url(#linear-gradient-11);}.cls-14{fill:url(#linear-gradient-12);}.cls-15{fill:url(#linear-gradient-13);}.cls-16{fill:url(#linear-gradient-14);}.cls-17{fill:url(#linear-gradient-15);}.cls-18{fill:url(#linear-gradient-16);}.cls-19{fill:url(#linear-gradient-17);}.cls-20{fill:url(#linear-gradient-18);}.cls-21{fill:url(#linear-gradient-19);}</style><linearGradient id="linear-gradient" x1="10.61" y1="55.26" x2="108.61" y2="103.26" gradientUnits="userSpaceOnUse"><stop offset="0" stop-color="#fff" stop-opacity="0.3"/><stop offset="0.04" stop-color="#fff" stop-opacity="0.33"/><stop offset="0.38" stop-color="#fff" stop-opacity="0.62"/><stop offset="0.67" stop-color="#fff" stop-opacity="0.82"/><stop offset="0.88" stop-color="#fff" stop-opacity="0.95"/><stop offset="1" stop-color="#fff"/></linearGradient><linearGradient id="linear-gradient-2" x1="0.69" y1="145.84" x2="99.69" y2="145.84" xlink:href="#linear-gradient"/><linearGradient id="linear-gradient-3" x1="198.69" y1="63.63" x2="252.69" y2="63.63" xlink:href="#linear-gradient"/><linearGradient id="linear-gradient-4" x1="185.07" y1="145.91" x2="242.4" y2="184.58" xlink:href="#linear-gradient"/><linearGradient id="linear-gradient-5" x1="180.69" y1="51.29" x2="206.85" y2="51.29" xlink:href="#linear-gradient"/><linearGradient id="linear-gradient-6" x1="126.63" y1="115.12" x2="126.13" y2="216.12" gradientUnits="userSpaceOnUse"><stop offset="0" stop-color="#fff" stop-opacity="0.2"/><stop offset="0.13" stop-color="#fff" stop-opacity="0.33"/><stop offset="0.44" stop-color="#fff" stop-opacity="0.61"/><stop offset="0.7" stop-color="#fff" stop-opacity="0.82"/><stop offset="0.89" stop-color="#fff" stop-opacity="0.95"/><stop offset="1" stop-color="#fff"/></linearGradient><linearGradient id="linear-gradient-7" x1="123.37" y1="74.76" x2="121.03" y2="123.09" xlink:href="#linear-gradient"/><linearGradient id="linear-gradient-8" x1="52.91" y1="51.84" x2="100.24" y2="63.18" gradientUnits="userSpaceOnUse"><stop offset="0" stop-color="#fff" stop-opacity="0.3"/><stop offset="0.13" stop-color="#fff" stop-opacity="0.36"/><stop offset="0.37" stop-color="#fff" stop-opacity="0.51"/><stop offset="0.7" stop-color="#fff" stop-opacity="0.76"/><stop offset="1" stop-color="#fff"/></linearGradient><linearGradient id="linear-gradient-9" x1="125.84" y1="72.68" x2="126.84" y2="-12.32" xlink:href="#linear-gradient"/><linearGradient id="linear-gradient-10" x1="78.69" y1="111.93" x2="85.69" y2="111.93" xlink:href="#linear-gradient"/><linearGradient id="linear-gradient-11" x1="99.66" y1="108.37" x2="114.66" y2="119.37" xlink:href="#linear-gradient"/><linearGradient id="linear-gradient-12" x1="51.08" y1="87.05" x2="85.08" y2="166.05" gradientUnits="userSpaceOnUse"><stop offset="0" stop-color="#fff" stop-opacity="0.3"/><stop offset="0.14" stop-color="#fff" stop-opacity="0.37"/><stop offset="0.41" stop-color="#fff" stop-opacity="0.55"/><stop offset="0.8" stop-color="#fff" stop-opacity="0.84"/><stop offset="1" stop-color="#fff"/></linearGradient><linearGradient id="linear-gradient-13" x1="86.3" y1="200.76" x2="114.3" y2="204.26" xlink:href="#linear-gradient"/><linearGradient id="linear-gradient-14" x1="153.69" y1="112.32" x2="160.69" y2="112.32" xlink:href="#linear-gradient"/><linearGradient id="linear-gradient-15" x1="152.96" y1="106.82" x2="139.96" y2="125.49" xlink:href="#linear-gradient"/><linearGradient id="linear-gradient-16" x1="153.69" y1="121.57" x2="195.19" y2="189.57" xlink:href="#linear-gradient"/><linearGradient id="linear-gradient-17" x1="170.86" y1="203.38" x2="132.36" y2="201.88" xlink:href="#linear-gradient"/><linearGradient id="linear-gradient-18" x1="120.6" y1="208.25" x2="130.1" y2="194.25" gradientUnits="userSpaceOnUse"><stop offset="0" stop-color="#fff" stop-opacity="0.2"/><stop offset="0.27" stop-color="#fff" stop-opacity="0.21"/><stop offset="0.46" stop-color="#fff" stop-opacity="0.25"/><stop offset="0.62" stop-color="#fff" stop-opacity="0.31"/><stop offset="0.77" stop-color="#fff" stop-opacity="0.39"/><stop offset="0.9" stop-color="#fff" stop-opacity="0.5"/><stop offset="1" stop-color="#fff" stop-opacity="0.6"/></linearGradient><linearGradient id="linear-gradient-19" x1="126.54" y1="211.19" x2="126.87" y2="231.86" xlink:href="#linear-gradient"/></defs><title>logo-fox_1</title><g id="Layer_2" data-name="Layer 2"><g id="vertion_3_fox" data-name="vertion 3 fox"><path class="cls-1" d="M54.69.63v36L46.53,102,.69,126.63l27-27a413.66,413.66,0,0,1,27-99Z"/><path class="cls-2" d="M99.69,189.63c-1.73.08-5,.19-9,0a87.69,87.69,0,0,1-8.8-1c-16.36-2.69-51.47-12.06-72.2-44a91.06,91.06,0,0,1-9-18L46.53,102,27.69,135.63C27.69,165.48,59.89,189.63,99.69,189.63Z"/><path class="cls-3" d="M252.69,126.63,206.85,102l-8.16-65.32V.63a414.18,414.18,0,0,1,18,54,414.25,414.25,0,0,1,9,45Z"/><path class="cls-4" d="M252.69,126.63a91.06,91.06,0,0,1-9,18c-20.59,31.68-55.38,41.14-71.87,43.9a86.23,86.23,0,0,1-9.13,1.1c-4,.19-7.27.08-9,0,39.8,0,72-24.15,72-54L206.85,102Z"/><path class="cls-5" d="M107.28,106.64c0,.12-.11.24-.17.36"/><path class="cls-5" d="M146.27,107c-.06-.12-.12-.24-.17-.36"/><path class="cls-5" d="M99.71,115.22h0"/><path class="cls-5" d="M153.69,115.22h0"/><line class="cls-5" x1="144.69" y1="117.63" x2="144.71" y2="117.47"/><line class="cls-5" x1="144.69" y1="117.63" x2="144.71" y2="117.47"/><polygon class="cls-6" points="206.85 101.95 180.69 90.63 198.69 0.63 198.69 36.63 206.85 101.95"/><path class="cls-7" d="M206.85,102l-26.16-2.32L146.27,107v0L141,117.63l-5.29,81v.12a4.76,4.76,0,0,0-4.5-4.93h-9a4.76,4.76,0,0,0-4.5,4.93v-.12L112.4,118l-5.29-11h0L72.69,99.63,46.53,102,72.69,90.3l35.78,12.14,18.22,6.19,54-18Z"/><path class="cls-8" d="M192.7,5.93a265.08,265.08,0,0,0-39,44.2,251.94,251.94,0,0,0-27,49.5,251.94,251.94,0,0,0-27-49.5,265.08,265.08,0,0,0-39-44.2l66,58.37Z"/><polygon class="cls-9" points="72.69 90.3 46.53 101.95 54.69 36.63 54.69 0.63 72.69 90.3"/><path class="cls-10" d="M60.68,5.93c-2-1.87-4-3.63-6-5.3"/><path class="cls-11" d="M198.69.63l-18,90-54,18-18.22-6.19L72.69,90.3,54.69.63l6,5.3a265.08,265.08,0,0,1,39,44.2,251.94,251.94,0,0,1,27,49.5,251.94,251.94,0,0,1,27-49.5,265.08,265.08,0,0,1,39-44.2Z"/><path class="cls-10" d="M198.69.63c-1.94,1.67-3.94,3.43-6,5.3"/><path class="cls-12" d="M85.69,115.22a6.8,6.8,0,0,1-7-6.59h3C81.69,112.27,83.48,115.22,85.69,115.22Z"/><path class="cls-13" d="M108.67,117.47c-.32-1.26-4.21-2.25-9-2.25a18,18,0,0,0,7.4-8.21Z"/><path class="cls-14" d="M117.69,198.63v.19a31.38,31.38,0,0,0-5-4.19,31.92,31.92,0,0,0-13-5c-39.8,0-72-24.15-72-54L46.53,102l26.16-2.32a18,18,0,0,0,27,15.59c4.75,0,8.64,1,9,2.25L107.11,107l5.29,11Z"/><path class="cls-15" d="M126.69,207.63a13,13,0,0,1-4.33,6.67,12.57,12.57,0,0,1-4.67,2.33,14.31,14.31,0,0,1-8-.5,20.91,20.91,0,0,1-3-1.14h0a24.4,24.4,0,0,1-4.82-3c-8.52-6.71-18.91-21.83-20-23.38a87.69,87.69,0,0,0,8.8,1c4,.19,7.27.08,9,0a31.92,31.92,0,0,1,13,5,31.38,31.38,0,0,1,5,4.19A9,9,0,0,0,126.69,207.63Z"/><path class="cls-16" d="M160.69,115.61a6.8,6.8,0,0,1-7-6.59h3C156.69,112.66,158.48,115.61,160.69,115.61Z"/><path class="cls-17" d="M153.67,115.22c-4.75,0-8.64,1-9,2.25L146.27,107A18,18,0,0,0,153.67,115.22Z"/><path class="cls-18" d="M225.69,135.63c0,29.85-32.2,54-72,54a31.92,31.92,0,0,0-13,5,31.38,31.38,0,0,0-5,4.19v-.19l5.29-81L146.27,107l-1.56,10.45c.32-1.26,4.21-2.25,9-2.25a18,18,0,0,0,27-15.59L206.85,102Z"/><path class="cls-19" d="M171.82,188.53c-1,1.51-11.67,16.7-20.2,23.43a23.65,23.65,0,0,1-5.11,3.15h0a20.94,20.94,0,0,1-2.71,1,14.31,14.31,0,0,1-8,.5,12.57,12.57,0,0,1-4.67-2.33,13,13,0,0,1-4.33-6.67,9,9,0,0,0,8.9-8.81,31.38,31.38,0,0,1,5-4.19,31.92,31.92,0,0,1,13-5c1.73.08,5,.19,9,0A86.23,86.23,0,0,0,171.82,188.53Z"/><path class="cls-20" d="M135.69,198.75v.07a9,9,0,0,1-8.9,8.81h-.1a9,9,0,0,1-9-8.81v-.07a4.76,4.76,0,0,1,4.5-4.93h9A4.76,4.76,0,0,1,135.69,198.75Z"/><path class="cls-21" d="M146.5,215.12c-2,1.44-3.72,2.56-5,3.34-2.61,1.65-4,2.48-5.33,2.83a24,24,0,0,1-5.67.4c-1.6,0-2.92,0-3.83-.06s-2.23.08-3.83.06a24,24,0,0,1-5.67-.4c-1.38-.35-2.72-1.18-5.33-2.83-1.3-.81-3.08-2-5.16-3.47a20.91,20.91,0,0,0,3,1.14,14.31,14.31,0,0,0,8,.5,12.57,12.57,0,0,0,4.67-2.33,13,13,0,0,0,4.33-6.67h.1a13,13,0,0,0,4.33,6.67,12.57,12.57,0,0,0,4.67,2.33,14.31,14.31,0,0,0,8-.5A20.94,20.94,0,0,0,146.5,215.12Z"/><path class="cls-10" d="M146.7,215l-.19.13"/></g></g></svg>