<svg fill="white" xmlns="http://www.w3.org/2000/svg" xmlns:xlink="http://www.w3.org/1999/xlink" version="1.1" x="0px" y="0px" viewBox="0 0 64 64" style="enable-background:new 0 0 64 64;" xml:space="preserve">
	<path d="M59,33V11c0-2.757-2.243-5-5-5H10c-2.757,0-5,2.243-5,5v15c-1.654,0-3,1.346-3,3v30c0,1.654,1.346,3,3,3h22  c1.654,0,3-1.346,3-3h8.381c0.943,0,1.812-0.43,2.384-1.179s0.758-1.701,0.51-2.61L39.309,48H45v11c0,1.654,1.346,3,3,3h11  c1.654,0,3-1.346,3-3V36C62,34.346,60.654,33,59,33z M60,36v2H47v-2c0-0.551,0.449-1,1-1h11C59.551,35,60,35.449,60,36z M47,40h13  v15H47V40z M7,11c0-1.654,1.346-3,3-3h44c1.654,0,3,1.346,3,3v22h-9c-1.654,0-3,1.346-3,3v2H30v-9c0-1.654-1.346-3-3-3H7V11z M28,55  H4V33h24V55z M5,28h22c0.551,0,1,0.449,1,1v2H4v-2C4,28.449,4.449,28,5,28z M27,60H5c-0.551,0-1-0.449-1-1v-2h24v2  C28,59.551,27.551,60,27,60z M39.176,56.607C38.985,56.857,38.696,57,38.381,57H30v-2h9.145l0.201,0.737  C39.429,56.04,39.367,56.357,39.176,56.607z M38.6,53H30v-5h7.236L38.6,53z M30,46v-6h15v6H30z M59,60H48c-0.551,0-1-0.449-1-1v-2  h13v2C60,59.551,59.551,60,59,60z"/><rect x="7.172" y="45" transform="matrix(0.7071 -0.7071 0.7071 0.7071 -29.598 20.5442)" width="5.657" height="2"/><rect x="9.515" y="44" transform="matrix(0.7071 -0.7071 0.7071 0.7071 -26.5477 25.9081)" width="16.971" height="2"/><rect x="12.757" y="38" transform="matrix(0.7071 -0.7071 0.7071 0.7071 -22.598 23.4437)" width="8.485" height="2"/><rect x="48.964" y="44.5" transform="matrix(0.7071 -0.7071 0.7071 0.7071 -16.7965 50.4497)" width="7.071" height="2"/><rect x="50.964" y="48.5" transform="matrix(0.7071 -0.7071 0.7071 0.7071 -19.0391 53.0355)" width="7.071" height="2"/><rect x="27.757" y="20" transform="matrix(0.7071 -0.7071 0.7071 0.7071 -5.4767 28.7782)" width="8.485" height="2"/><rect x="36.757" y="18" transform="matrix(0.7071 -0.7071 0.7071 0.7071 -1.4264 34.5564)" width="8.485" height="2"/><rect x="31.172" y="25" transform="matrix(0.7071 -0.7071 0.7071 0.7071 -8.4264 31.6569)" width="5.657" height="2"/><rect x="36.159" y="13.005" transform="matrix(0.7071 -0.7071 0.7071 0.7071 1.5182 31.6755)" width="5.671" height="2"/><rect x="9" y="10" width="2" height="2"/><rect x="13" y="10" width="2" height="2"/><rect x="17" y="10" width="2" height="2"/>
	
</svg>