<svg fill="white" xmlns="http://www.w3.org/2000/svg" xmlns:xlink="http://www.w3.org/1999/xlink" version="1.1" x="0px" y="0px" viewBox="0 0 100 100" style="enable-background:new 0 0 100 100;" xml:space="preserve"><path d="M93.266,27.383c-0.037-1.021-0.456-1.982-1.177-2.702c-0.772-0.773-1.834-1.207-2.965-1.177  c-3.924,0.129-7.02,3.43-6.9,7.36l0.213,6.563l-1.109,4.488c-0.01,0-0.02-0.003-0.03-0.003c-1.393,0-2.698,0.54-3.68,1.52  l-7.297,7.303l-2.528,0.437c-1.634,0.278-3.18,1.076-4.352,2.249l-5.027,5.027c-1.48,1.481-2.322,3.446-2.371,5.536l-0.187,8.331  c-2.344,0.777-4.053,2.972-4.081,5.576l-0.116,10.909c-0.035,3.277,2.603,5.971,5.88,6.007L75.637,95c0.022,0,0.044,0,0.065,0  c1.559,0,3.031-0.603,4.152-1.7c1.137-1.113,1.772-2.598,1.79-4.18l0.116-10.908c0.017-1.583-0.587-3.081-1.699-4.217  c-0.629-0.643-1.38-1.119-2.197-1.42l0.037-0.253c0.276-1.854,1.122-3.533,2.444-4.855l8.49-8.491  c2.17-2.169,3.539-5.035,3.856-8.067l0.903-8.56c0.06-0.304,0.094-0.618,0.1-0.944l0.003-0.032c0.002-0.017-0.001-0.034,0-0.052  c0-0.052,0.008-0.101,0.007-0.154L93.266,27.383z M78.761,78.18l-0.116,10.908c-0.009,0.781-0.324,1.516-0.889,2.068  C77.191,91.708,76.444,92,75.669,92l-18.098-0.193c-1.623-0.018-2.93-1.352-2.912-2.975l0.116-10.909  c0.018-1.612,1.335-2.912,2.943-2.912c0.011,0,0.021,0,0.032,0l18.099,0.194c0.781,0.008,1.516,0.324,2.067,0.888  C78.47,76.657,78.77,77.398,78.761,78.18z M86.715,56.854l-8.49,8.491c-1.78,1.78-2.918,4.04-3.291,6.539l-0.045,0.311  l-16.024-0.172l0.179-7.971c0.03-1.313,0.561-2.55,1.492-3.483l5.027-5.027c0.736-0.736,1.707-1.238,2.737-1.413l3.001-0.519  c0.106-0.018,0.207-0.048,0.302-0.087c0.007-0.003,0.014-0.008,0.021-0.011c0.18-0.075,0.34-0.183,0.475-0.316  c0.002-0.002,0.005-0.002,0.007-0.004l7.635-7.639c0.826-0.828,2.29-0.826,3.115,0c0.413,0.414,0.641,0.967,0.641,1.558  s-0.228,1.144-0.641,1.558l-8.771,8.771c-0.586,0.586-0.586,1.536,0,2.121C74.378,59.854,74.762,60,75.146,60  s0.768-0.146,1.061-0.439l8.771-8.771c0.98-0.98,1.52-2.287,1.52-3.679s-0.539-2.699-1.52-3.679c-0.24-0.24-0.5-0.452-0.776-0.638  l1.198-4.849c0.004-0.017,0.004-0.033,0.007-0.05c0.011-0.05,0.017-0.101,0.022-0.153c0.006-0.053,0.011-0.105,0.011-0.157  c0-0.017,0.004-0.032,0.003-0.049l-0.22-6.768c-0.068-2.278,1.727-4.193,3.985-4.268c0.289,0.004,0.561,0.1,0.76,0.3  c0.131,0.13,0.288,0.355,0.301,0.684l0.436,13.673l-0.102,0.969c-0.003,0.032-0.009,0.065-0.01,0.097l-0.883,8.371  C89.463,52.946,88.399,55.169,86.715,56.854z"/><circle cx="75.171" cy="79.554" r="2.567"/><path d="M44.144,72.315l-0.187-8.332c-0.049-2.088-0.891-4.054-2.371-5.535l-5.027-5.027c-1.172-1.172-2.718-1.971-4.347-2.248  l-2.533-0.438l-7.298-7.304c-0.98-0.979-2.286-1.519-3.679-1.519c-0.01,0-0.02,0.003-0.03,0.003l-1.109-4.488l0.213-6.567  c0.119-3.927-2.977-7.228-6.917-7.357c-1.056-0.039-2.175,0.404-2.947,1.177c-0.722,0.721-1.141,1.682-1.178,2.71l-0.44,13.793  c-0.001,0.058,0.007,0.114,0.008,0.172c0.001,0.006-0.001,0.011,0,0.017l0.001,0.011c0.005,0.331,0.04,0.653,0.102,0.968  l0.903,8.555c0.317,3.034,1.687,5.899,3.856,8.068l8.49,8.492c1.322,1.322,2.168,3,2.443,4.851l0.038,0.258  c-0.817,0.301-1.568,0.777-2.197,1.42c-1.112,1.137-1.716,2.635-1.699,4.217l0.116,10.908c0.018,1.583,0.653,3.067,1.79,4.18  c1.122,1.098,2.594,1.7,4.152,1.7c0.021,0,0.043,0,0.064,0l18.1-0.193c3.276-0.036,5.914-2.73,5.879-6.007l-0.116-10.909  C48.196,75.287,46.488,73.092,44.144,72.315z M21.775,65.345l-8.49-8.492c-1.685-1.684-2.748-3.907-2.993-6.26l-0.883-8.369  c-0.001-0.032-0.007-0.064-0.01-0.096l-0.103-0.973l0.436-13.663c0.013-0.335,0.17-0.56,0.302-0.691  c0.198-0.199,0.47-0.301,0.742-0.299c2.275,0.075,4.07,1.99,4.002,4.265l-0.22,6.771c-0.001,0.017,0.003,0.032,0.003,0.049  c0,0.052,0.005,0.104,0.011,0.157c0.005,0.052,0.011,0.103,0.022,0.153c0.004,0.017,0.003,0.033,0.007,0.05l1.198,4.849  c-0.276,0.186-0.536,0.398-0.776,0.638c-0.98,0.98-1.52,2.287-1.52,3.679s0.539,2.699,1.52,3.679l8.771,8.771  C24.087,59.854,24.471,60,24.854,60s0.768-0.146,1.061-0.439c0.586-0.585,0.586-1.535,0-2.121l-8.771-8.771  c-0.413-0.413-0.641-0.966-0.641-1.557s0.228-1.145,0.641-1.558c0.826-0.825,2.289-0.827,3.115,0l7.635,7.64  c0.002,0.002,0.005,0.002,0.007,0.004c0.134,0.133,0.295,0.241,0.475,0.316c0.007,0.003,0.013,0.008,0.021,0.011  c0.096,0.038,0.197,0.068,0.302,0.087l3.006,0.52c1.025,0.174,1.996,0.675,2.732,1.412l5.027,5.027  c0.932,0.933,1.462,2.169,1.492,3.482l0.179,7.972l-16.024,0.172l-0.046-0.316C24.693,69.384,23.556,67.124,21.775,65.345z   M42.43,91.806L24.33,92c-0.802,0-1.521-0.292-2.086-0.843c-0.564-0.553-0.88-1.287-0.889-2.068L21.239,78.18  c-0.009-0.781,0.291-1.522,0.844-2.087c0.552-0.564,1.286-0.879,2.067-0.888l18.099-0.194c0.011,0,0.021,0,0.032,0  c1.608,0,2.926,1.3,2.943,2.912l0.116,10.909C45.358,90.454,44.052,91.789,42.43,91.806z"/><circle cx="24.829" cy="79.554" r="2.567"/><path d="M29.822,33.476h2.818c0.358,1.222,0.843,2.394,1.451,3.505l-1.996,1.996c-1.231,1.231-1.231,3.235,0,4.466l2.802,2.802  c0.615,0.615,1.424,0.922,2.232,0.922c0.81,0,1.618-0.308,2.233-0.923l1.996-1.996c1.11,0.607,2.282,1.092,3.505,1.45v2.819  c0,1.743,1.419,3.162,3.162,3.162h3.949c1.743,0,3.162-1.418,3.162-3.162v-2.819c1.223-0.359,2.394-0.843,3.505-1.45l1.996,1.996  c0.615,0.616,1.424,0.923,2.232,0.923s1.618-0.308,2.234-0.923l2.801-2.801c1.231-1.231,1.231-3.235,0-4.466l-1.996-1.996  c0.607-1.111,1.092-2.282,1.451-3.505h2.818c1.743,0,3.161-1.418,3.161-3.162v-3.95c0-1.743-1.418-3.162-3.161-3.162H67.36  c-0.358-1.222-0.843-2.394-1.451-3.505l1.997-1.997c1.23-1.231,1.23-3.235-0.001-4.466l-2.801-2.802  c-1.194-1.192-3.278-1.191-4.467,0l-1.996,1.996c-1.111-0.607-2.282-1.092-3.505-1.45V8.162C55.137,6.418,53.718,5,51.975,5h-3.949  c-1.743,0-3.162,1.418-3.162,3.162v2.819c-1.223,0.358-2.394,0.843-3.505,1.45l-1.995-1.995c-1.191-1.192-3.274-1.194-4.468,0  l-2.801,2.801c-1.231,1.231-1.231,3.234,0,4.466l1.996,1.996c-0.607,1.111-1.092,2.282-1.451,3.505h-2.818  c-1.743,0-3.161,1.418-3.161,3.162v3.95C26.661,32.058,28.079,33.476,29.822,33.476z M29.661,26.364  c0-0.092,0.069-0.162,0.161-0.162h3.965c0.001,0,0.003,0,0.004,0c0.003,0,0.005-0.001,0.008-0.001  c0.155-0.001,0.302-0.031,0.443-0.076c0.024-0.008,0.048-0.013,0.072-0.022c0.137-0.051,0.263-0.122,0.377-0.209  c0.021-0.016,0.04-0.033,0.06-0.05c0.113-0.095,0.214-0.203,0.295-0.327c0.009-0.014,0.015-0.029,0.024-0.044  c0.079-0.131,0.14-0.274,0.176-0.428c0.002-0.007,0.006-0.012,0.008-0.019c0.377-1.708,1.041-3.311,1.973-4.766  c0.046-0.072,0.081-0.147,0.113-0.223c0.005-0.011,0.012-0.021,0.016-0.032c0.069-0.172,0.1-0.351,0.103-0.53  c0-0.012,0.003-0.023,0.003-0.034c-0.001-0.181-0.038-0.36-0.103-0.529c-0.004-0.011-0.006-0.023-0.011-0.034  c-0.072-0.175-0.179-0.337-0.316-0.476c-0.003-0.003-0.004-0.007-0.007-0.01l-0.012-0.012c-0.001-0.001-0.002-0.002-0.003-0.003  l-2.794-2.795c-0.061-0.06-0.061-0.165-0.001-0.225l2.801-2.801c0.053-0.053,0.172-0.053,0.225,0l2.811,2.811  c0.006,0.006,0.014,0.007,0.02,0.013c0.128,0.124,0.275,0.217,0.433,0.288c0.036,0.016,0.07,0.028,0.107,0.041  c0.161,0.057,0.328,0.097,0.499,0.097c0.001,0,0.001,0,0.002,0c0,0,0,0,0.001,0c0.169,0,0.337-0.039,0.501-0.098  c0.048-0.017,0.091-0.04,0.138-0.062c0.056-0.027,0.116-0.042,0.17-0.077c1.454-0.932,3.057-1.596,4.765-1.973  c0.035-0.008,0.066-0.023,0.099-0.033c0.059-0.018,0.119-0.033,0.175-0.058c0.044-0.019,0.084-0.045,0.126-0.068  c0.043-0.024,0.087-0.045,0.127-0.073c0.043-0.03,0.081-0.066,0.121-0.1c0.033-0.029,0.069-0.055,0.099-0.086  c0.036-0.037,0.065-0.078,0.097-0.117c0.029-0.036,0.059-0.07,0.084-0.108c0.027-0.041,0.047-0.085,0.07-0.129  c0.022-0.042,0.047-0.082,0.065-0.127c0.02-0.049,0.033-0.102,0.048-0.153c0.012-0.042,0.027-0.082,0.036-0.125  c0.013-0.065,0.016-0.132,0.02-0.199c0.002-0.03,0.009-0.059,0.009-0.09v-0.018c0-0.002,0-0.004,0-0.006V8.162  C47.863,8.069,47.933,8,48.025,8h3.949c0.093,0,0.162,0.069,0.162,0.162v3.945c0,0.002,0,0.004,0,0.006v0.018  c0,0.03,0.007,0.059,0.009,0.089c0.004,0.067,0.007,0.135,0.02,0.2c0.008,0.042,0.023,0.082,0.035,0.123  c0.015,0.052,0.028,0.105,0.048,0.155c0.018,0.044,0.042,0.084,0.064,0.126c0.023,0.044,0.043,0.089,0.07,0.13  c0.025,0.038,0.055,0.071,0.084,0.107c0.032,0.04,0.062,0.082,0.098,0.118c0.031,0.031,0.066,0.057,0.099,0.086  c0.04,0.034,0.078,0.07,0.122,0.1c0.04,0.028,0.084,0.049,0.127,0.072c0.042,0.023,0.082,0.049,0.127,0.069  c0.056,0.024,0.115,0.04,0.174,0.057c0.034,0.01,0.065,0.025,0.1,0.033c1.708,0.377,3.311,1.041,4.765,1.973  c0.054,0.034,0.113,0.05,0.17,0.077c0.046,0.022,0.09,0.045,0.138,0.062c0.164,0.059,0.332,0.098,0.501,0.098c0,0,0,0,0.001,0  c0.001,0,0.001,0,0.002,0c0.171,0,0.338-0.04,0.499-0.097c0.037-0.013,0.071-0.025,0.107-0.041c0.158-0.07,0.305-0.163,0.433-0.288  c0.006-0.006,0.014-0.007,0.02-0.013l2.812-2.811c0.051-0.052,0.171-0.052,0.224,0l2.801,2.801c0.06,0.06,0.06,0.165,0,0.224  l-2.795,2.795c-0.001,0.001-0.002,0.002-0.003,0.003l-0.012,0.012c-0.003,0.003-0.004,0.007-0.007,0.01  c-0.137,0.139-0.244,0.301-0.316,0.476c-0.005,0.011-0.007,0.023-0.011,0.034c-0.065,0.169-0.102,0.347-0.103,0.529  c0,0.012,0.002,0.023,0.003,0.034c0.003,0.179,0.035,0.358,0.103,0.53c0.004,0.011,0.011,0.021,0.016,0.032  c0.032,0.076,0.067,0.151,0.113,0.223c0.932,1.455,1.596,3.058,1.973,4.766c0.002,0.007,0.006,0.012,0.008,0.02  c0.036,0.153,0.097,0.296,0.176,0.427c0.009,0.015,0.015,0.03,0.024,0.044c0.08,0.124,0.181,0.231,0.294,0.326  c0.021,0.017,0.04,0.035,0.062,0.051c0.114,0.087,0.24,0.157,0.376,0.208c0.024,0.009,0.048,0.015,0.073,0.023  c0.141,0.045,0.287,0.075,0.443,0.076c0.003,0,0.005,0.001,0.008,0.001c0.001,0,0.003,0,0.004,0h3.965  c0.092,0,0.161,0.069,0.161,0.162v3.95c0,0.092-0.069,0.162-0.161,0.162h-3.943c-0.004,0-0.008,0-0.013,0h-0.013  c-0.02,0-0.039,0.005-0.058,0.006c-0.08,0.003-0.16,0.008-0.237,0.024c-0.021,0.004-0.039,0.012-0.06,0.017  c-0.075,0.018-0.15,0.039-0.22,0.068c-0.022,0.009-0.041,0.022-0.063,0.032c-0.066,0.031-0.131,0.064-0.192,0.104  c-0.022,0.015-0.041,0.033-0.062,0.048c-0.056,0.041-0.111,0.083-0.16,0.132c-0.023,0.022-0.041,0.048-0.062,0.072  c-0.042,0.047-0.085,0.094-0.121,0.147c-0.025,0.036-0.044,0.077-0.066,0.116c-0.025,0.045-0.053,0.088-0.074,0.136  c-0.024,0.054-0.039,0.112-0.056,0.169c-0.011,0.035-0.026,0.068-0.034,0.105c-0.377,1.708-1.041,3.311-1.973,4.766  c-0.046,0.072-0.081,0.147-0.113,0.223c-0.005,0.011-0.012,0.021-0.016,0.032c-0.069,0.172-0.1,0.351-0.103,0.53  c0,0.012-0.003,0.023-0.003,0.034c0.001,0.181,0.038,0.36,0.103,0.529c0.004,0.011,0.006,0.023,0.011,0.034  c0.072,0.175,0.179,0.337,0.316,0.476c0.003,0.003,0.004,0.007,0.007,0.01l0.012,0.012c0.001,0.001,0.002,0.002,0.003,0.003  l2.795,2.795c0.06,0.06,0.06,0.165,0,0.224l-2.8,2.8c-0.061,0.061-0.165,0.061-0.226,0.001l-2.794-2.794  c-0.002-0.003-0.005-0.005-0.007-0.007l-0.009-0.009c-0.003-0.003-0.006-0.003-0.008-0.006c-0.14-0.138-0.302-0.245-0.477-0.317  c-0.013-0.005-0.026-0.007-0.038-0.012c-0.167-0.064-0.344-0.1-0.523-0.102c-0.014,0-0.027,0.003-0.041,0.003  c-0.177,0.003-0.355,0.034-0.525,0.102c-0.011,0.005-0.021,0.012-0.033,0.016c-0.076,0.032-0.151,0.067-0.223,0.113  c-1.454,0.931-3.058,1.595-4.767,1.973c-0.031,0.007-0.058,0.02-0.088,0.029c-0.063,0.018-0.127,0.035-0.186,0.061  c-0.042,0.018-0.08,0.043-0.12,0.065c-0.045,0.025-0.091,0.047-0.133,0.076c-0.042,0.029-0.078,0.063-0.116,0.096  c-0.035,0.03-0.072,0.057-0.104,0.09c-0.034,0.035-0.063,0.075-0.094,0.113c-0.03,0.037-0.061,0.072-0.087,0.112  c-0.026,0.04-0.046,0.083-0.068,0.126c-0.023,0.043-0.048,0.084-0.066,0.13c-0.02,0.049-0.032,0.101-0.047,0.152  c-0.012,0.042-0.028,0.082-0.036,0.126c-0.013,0.065-0.016,0.132-0.02,0.199c-0.002,0.03-0.009,0.059-0.009,0.09v0.018  c0,0.002,0,0.004,0,0.006v3.945c0,0.092-0.069,0.162-0.162,0.162h-3.949c-0.093,0-0.162-0.069-0.162-0.162v-3.945  c0-0.002,0-0.004,0-0.006v-0.018c0-0.031-0.007-0.06-0.009-0.091c-0.004-0.066-0.007-0.133-0.02-0.197  c-0.009-0.044-0.024-0.085-0.037-0.128c-0.015-0.05-0.027-0.102-0.047-0.15c-0.019-0.046-0.044-0.087-0.067-0.131  c-0.022-0.042-0.042-0.085-0.068-0.125c-0.026-0.04-0.058-0.075-0.088-0.113c-0.031-0.038-0.059-0.078-0.093-0.113  c-0.032-0.033-0.069-0.061-0.105-0.091c-0.038-0.032-0.074-0.067-0.116-0.095c-0.042-0.029-0.089-0.052-0.134-0.077  c-0.04-0.022-0.077-0.046-0.119-0.065c-0.06-0.026-0.124-0.043-0.187-0.062c-0.03-0.009-0.057-0.022-0.088-0.029  c-1.709-0.378-3.313-1.042-4.767-1.973c-0.072-0.046-0.148-0.082-0.225-0.114c-0.01-0.004-0.019-0.011-0.029-0.015  c-0.172-0.069-0.352-0.101-0.531-0.103c-0.012,0-0.023-0.003-0.034-0.003c-0.18,0.002-0.358,0.038-0.526,0.102  c-0.013,0.005-0.025,0.007-0.037,0.012c-0.175,0.072-0.336,0.179-0.476,0.316c-0.003,0.003-0.007,0.004-0.01,0.007l-0.011,0.011  c-0.001,0.001-0.003,0.002-0.004,0.004l-2.795,2.795c-0.061,0.06-0.164,0.06-0.225,0l-2.801-2.801c-0.06-0.06-0.06-0.165,0-0.224  l2.795-2.795c0.001-0.001,0.002-0.002,0.003-0.003l0.012-0.012c0.003-0.003,0.004-0.007,0.007-0.01  c0.137-0.139,0.244-0.301,0.316-0.476c0.005-0.011,0.007-0.023,0.011-0.034c0.065-0.169,0.102-0.347,0.103-0.529  c0-0.012-0.002-0.023-0.003-0.034c-0.003-0.179-0.035-0.358-0.103-0.53c-0.004-0.011-0.011-0.021-0.016-0.032  c-0.032-0.076-0.067-0.151-0.113-0.223c-0.932-1.455-1.596-3.058-1.973-4.766c-0.009-0.039-0.025-0.074-0.037-0.112  c-0.017-0.054-0.03-0.109-0.053-0.16c-0.024-0.057-0.057-0.108-0.087-0.161c-0.017-0.03-0.031-0.061-0.051-0.09  c-0.044-0.064-0.094-0.122-0.147-0.178c-0.012-0.013-0.022-0.028-0.035-0.04c-0.059-0.059-0.124-0.11-0.191-0.158  c-0.01-0.007-0.019-0.017-0.03-0.024c-0.07-0.047-0.145-0.086-0.223-0.121c-0.011-0.005-0.021-0.012-0.032-0.016  c-0.078-0.032-0.159-0.056-0.241-0.075c-0.014-0.003-0.027-0.009-0.041-0.012c-0.079-0.016-0.161-0.022-0.244-0.025  c-0.018-0.001-0.035-0.005-0.054-0.005h-0.012c-0.004,0-0.008,0-0.013,0h-3.944c-0.092,0-0.161-0.069-0.161-0.162V26.364z"/><path d="M50,34.839c3.584,0,6.5-2.916,6.5-6.5s-2.916-6.5-6.5-6.5s-6.5,2.916-6.5,6.5S46.416,34.839,50,34.839z M50,24.839  c1.93,0,3.5,1.57,3.5,3.5s-1.57,3.5-3.5,3.5s-3.5-1.57-3.5-3.5S48.07,24.839,50,24.839z"/><path d="M50,40.839c6.893,0,12.5-5.607,12.5-12.5s-5.607-12.5-12.5-12.5s-12.5,5.607-12.5,12.5S43.107,40.839,50,40.839z M50,18.839  c5.238,0,9.5,4.262,9.5,9.5s-4.262,9.5-9.5,9.5s-9.5-4.262-9.5-9.5S44.762,18.839,50,18.839z"/></svg>